<svg width="24" height="27" viewBox="0 0 24 27" fill="none" xmlns="http://www.w3.org/2000/svg">
<g clip-path="url(#clip0)">
<path d="M11.7 7.3L11.6987 7.3C11.2521 7.30115 10.8096 7.21403 10.3967 7.04363C9.98385 6.87324 9.60872 6.62294 9.2929 6.30711C8.97707 5.99128 8.72676 5.61615 8.55637 5.20328C8.38597 4.79041 8.29885 4.34794 8.3 3.90129V3.9C8.3 3.22755 8.49941 2.57019 8.873 2.01106C9.2466 1.45194 9.77761 1.01615 10.3989 0.758811C11.0201 0.501473 11.7038 0.434142 12.3633 0.565332C13.0228 0.696522 13.6287 1.02034 14.1042 1.49584C14.5797 1.97134 14.9035 2.57716 15.0347 3.23669C15.1659 3.89623 15.0985 4.57986 14.8412 5.20113C14.5839 5.82239 14.1481 6.3534 13.5889 6.727C13.0298 7.1006 12.3725 7.3 11.7 7.3ZM11.3583 12.785L11.7 13.1049L12.0417 12.785C14.9991 10.0161 18.8619 8.42742 22.9 8.30734V21.6076C18.7649 21.7288 14.8017 23.2951 11.7007 26.0345C8.60355 23.2878 4.63722 21.7201 0.5 21.6066V8.30734C4.5381 8.42742 8.40089 10.0161 11.3583 12.785Z" stroke="white"/>
</g>
<defs>
<clipPath id="clip0">
<rect width="23.4" height="26.71" fill="white"/>
</clipPath>
</defs>
</svg>
